<mxfile host="app.diagrams.net" agent="Mozilla/5.0 (Macintosh; Intel Mac OS X 10_15_7) AppleWebKit/537.36 (KHTML, like Gecko) Chrome/134.0.0.0 Safari/537.36" version="26.2.5">
  <diagram id="VyWrsm6qYP2M0FCrNPQh" name="Page-1">
    <mxGraphModel grid="1" page="0" gridSize="10" guides="1" tooltips="1" connect="1" arrows="1" fold="1" pageScale="1" pageWidth="850" pageHeight="1100" math="0" shadow="0">
      <root>
        <mxCell id="0" />
        <mxCell id="1" parent="0" />
        <mxCell id="XeW2exFy8SC8J2Q363h1-1" value="" style="rounded=0;whiteSpace=wrap;html=1;fillColor=none;dashed=1;" vertex="1" parent="1">
          <mxGeometry x="-520" y="-200" width="170" height="410" as="geometry" />
        </mxCell>
        <mxCell id="XeW2exFy8SC8J2Q363h1-2" value="Sources" style="rounded=0;whiteSpace=wrap;html=1;fillColor=default;strokeColor=none;" vertex="1" parent="1">
          <mxGeometry x="-495" y="-230" width="120" height="50" as="geometry" />
        </mxCell>
        <mxCell id="XeW2exFy8SC8J2Q363h1-3" value="" style="rounded=0;whiteSpace=wrap;html=1;fillColor=none;dashed=1;" vertex="1" parent="1">
          <mxGeometry x="-250" y="-170" width="170" height="380" as="geometry" />
        </mxCell>
        <mxCell id="XeW2exFy8SC8J2Q363h1-4" value="&lt;font style=&quot;font-size: 16px;&quot;&gt;&lt;b&gt;Bronze Layer&lt;/b&gt;&lt;/font&gt;" style="rounded=1;whiteSpace=wrap;html=1;fillColor=#ffe6cc;strokeColor=#d79b00;" vertex="1" parent="1">
          <mxGeometry x="-250" y="-230" width="170" height="50" as="geometry" />
        </mxCell>
        <mxCell id="XeW2exFy8SC8J2Q363h1-14" style="edgeStyle=none;curved=1;rounded=0;orthogonalLoop=1;jettySize=auto;html=1;fontSize=12;startSize=8;endSize=8;" edge="1" parent="1" source="XeW2exFy8SC8J2Q363h1-5">
          <mxGeometry relative="1" as="geometry">
            <mxPoint x="-260" y="-68" as="targetPoint" />
          </mxGeometry>
        </mxCell>
        <mxCell id="XeW2exFy8SC8J2Q363h1-15" style="edgeStyle=none;curved=1;rounded=0;orthogonalLoop=1;jettySize=auto;html=1;fontSize=12;startSize=8;endSize=8;" edge="1" parent="1" source="XeW2exFy8SC8J2Q363h1-5">
          <mxGeometry relative="1" as="geometry">
            <mxPoint x="-260" y="-110" as="targetPoint" />
          </mxGeometry>
        </mxCell>
        <mxCell id="XeW2exFy8SC8J2Q363h1-16" style="edgeStyle=none;curved=1;rounded=0;orthogonalLoop=1;jettySize=auto;html=1;fontSize=12;startSize=8;endSize=8;" edge="1" parent="1" source="XeW2exFy8SC8J2Q363h1-5">
          <mxGeometry relative="1" as="geometry">
            <mxPoint x="-260" y="-20" as="targetPoint" />
          </mxGeometry>
        </mxCell>
        <mxCell id="XeW2exFy8SC8J2Q363h1-5" value="" style="image;aspect=fixed;html=1;points=[];align=center;fontSize=12;image=img/lib/azure2/general/Folder_Blank.svg;" vertex="1" parent="1">
          <mxGeometry x="-469.5" y="-96" width="69" height="56.00000000000001" as="geometry" />
        </mxCell>
        <mxCell id="XeW2exFy8SC8J2Q363h1-21" style="edgeStyle=none;curved=1;rounded=0;orthogonalLoop=1;jettySize=auto;html=1;fontSize=12;startSize=8;endSize=8;" edge="1" parent="1" source="XeW2exFy8SC8J2Q363h1-6">
          <mxGeometry relative="1" as="geometry">
            <mxPoint x="-260" y="88" as="targetPoint" />
          </mxGeometry>
        </mxCell>
        <mxCell id="XeW2exFy8SC8J2Q363h1-22" style="edgeStyle=none;curved=1;rounded=0;orthogonalLoop=1;jettySize=auto;html=1;fontSize=12;startSize=8;endSize=8;" edge="1" parent="1" source="XeW2exFy8SC8J2Q363h1-6">
          <mxGeometry relative="1" as="geometry">
            <mxPoint x="-260" y="50" as="targetPoint" />
          </mxGeometry>
        </mxCell>
        <mxCell id="XeW2exFy8SC8J2Q363h1-23" style="edgeStyle=none;curved=1;rounded=0;orthogonalLoop=1;jettySize=auto;html=1;fontSize=12;startSize=8;endSize=8;" edge="1" parent="1" source="XeW2exFy8SC8J2Q363h1-6">
          <mxGeometry relative="1" as="geometry">
            <mxPoint x="-260" y="130" as="targetPoint" />
          </mxGeometry>
        </mxCell>
        <mxCell id="XeW2exFy8SC8J2Q363h1-6" value="" style="image;aspect=fixed;html=1;points=[];align=center;fontSize=12;image=img/lib/azure2/general/Folder_Blank.svg;" vertex="1" parent="1">
          <mxGeometry x="-469.5" y="60" width="69" height="56.00000000000001" as="geometry" />
        </mxCell>
        <mxCell id="XeW2exFy8SC8J2Q363h1-7" value="CRM&lt;span style=&quot;color: rgba(0, 0, 0, 0); font-family: monospace; font-size: 0px; text-align: start; text-wrap-mode: nowrap;&quot;&gt;%3CmxGraphModel%3E%3Croot%3E%3CmxCell%20id%3D%220%22%2F%3E%3CmxCell%20id%3D%221%22%20parent%3D%220%22%2F%3E%3CmxCell%20id%3D%222%22%20value%3D%22%22%20style%3D%22image%3Baspect%3Dfixed%3Bhtml%3D1%3Bpoints%3D%5B%5D%3Balign%3Dcenter%3BfontSize%3D12%3Bimage%3Dimg%2Flib%2Fazure2%2Fgeneral%2FFolder_Blank.svg%3B%22%20vertex%3D%221%22%20parent%3D%221%22%3E%3CmxGeometry%20x%3D%22-469%22%20y%3D%22-110%22%20width%3D%2269%22%20height%3D%2256.00000000000001%22%20as%3D%22geometry%22%2F%3E%3C%2FmxCell%3E%3C%2Froot%3E%3C%2FmxGraphModel%3E&lt;/span&gt;" style="text;html=1;align=center;verticalAlign=middle;whiteSpace=wrap;rounded=0;fontStyle=1" vertex="1" parent="1">
          <mxGeometry x="-470" y="-50" width="60" height="30" as="geometry" />
        </mxCell>
        <mxCell id="XeW2exFy8SC8J2Q363h1-8" value="ERM" style="text;html=1;align=center;verticalAlign=middle;whiteSpace=wrap;rounded=0;fontStyle=1" vertex="1" parent="1">
          <mxGeometry x="-470" y="130" width="60" height="30" as="geometry" />
        </mxCell>
        <mxCell id="VXDTWk6sCS9KCiPVcs_8-12" style="edgeStyle=orthogonalEdgeStyle;rounded=0;orthogonalLoop=1;jettySize=auto;html=1;" edge="1" parent="1" source="XeW2exFy8SC8J2Q363h1-9" target="VXDTWk6sCS9KCiPVcs_8-5">
          <mxGeometry relative="1" as="geometry" />
        </mxCell>
        <mxCell id="XeW2exFy8SC8J2Q363h1-9" value="crm_sales_details" style="rounded=1;whiteSpace=wrap;html=1;fillColor=#ffe6cc;strokeColor=#d79b00;" vertex="1" parent="1">
          <mxGeometry x="-240" y="-136" width="150" height="40" as="geometry" />
        </mxCell>
        <mxCell id="VXDTWk6sCS9KCiPVcs_8-13" style="edgeStyle=orthogonalEdgeStyle;rounded=0;orthogonalLoop=1;jettySize=auto;html=1;" edge="1" parent="1" source="XeW2exFy8SC8J2Q363h1-10" target="VXDTWk6sCS9KCiPVcs_8-6">
          <mxGeometry relative="1" as="geometry" />
        </mxCell>
        <mxCell id="XeW2exFy8SC8J2Q363h1-10" value="crm_prd_info" style="rounded=1;whiteSpace=wrap;html=1;fillColor=#ffe6cc;strokeColor=#d79b00;" vertex="1" parent="1">
          <mxGeometry x="-240" y="-88" width="150" height="40" as="geometry" />
        </mxCell>
        <mxCell id="VXDTWk6sCS9KCiPVcs_8-14" style="edgeStyle=orthogonalEdgeStyle;rounded=0;orthogonalLoop=1;jettySize=auto;html=1;" edge="1" parent="1" source="XeW2exFy8SC8J2Q363h1-11" target="VXDTWk6sCS9KCiPVcs_8-7">
          <mxGeometry relative="1" as="geometry" />
        </mxCell>
        <mxCell id="XeW2exFy8SC8J2Q363h1-11" value="crm_cust_info" style="rounded=1;whiteSpace=wrap;html=1;fillColor=#ffe6cc;strokeColor=#d79b00;" vertex="1" parent="1">
          <mxGeometry x="-240" y="-40" width="150" height="40" as="geometry" />
        </mxCell>
        <mxCell id="VXDTWk6sCS9KCiPVcs_8-15" style="edgeStyle=orthogonalEdgeStyle;rounded=0;orthogonalLoop=1;jettySize=auto;html=1;" edge="1" parent="1" source="XeW2exFy8SC8J2Q363h1-18" target="VXDTWk6sCS9KCiPVcs_8-8">
          <mxGeometry relative="1" as="geometry" />
        </mxCell>
        <mxCell id="XeW2exFy8SC8J2Q363h1-18" value="crm_sales_details" style="rounded=1;whiteSpace=wrap;html=1;fillColor=#ffe6cc;strokeColor=#d79b00;" vertex="1" parent="1">
          <mxGeometry x="-240" y="20" width="150" height="40" as="geometry" />
        </mxCell>
        <mxCell id="VXDTWk6sCS9KCiPVcs_8-16" style="edgeStyle=orthogonalEdgeStyle;rounded=0;orthogonalLoop=1;jettySize=auto;html=1;" edge="1" parent="1" source="XeW2exFy8SC8J2Q363h1-19" target="VXDTWk6sCS9KCiPVcs_8-9">
          <mxGeometry relative="1" as="geometry" />
        </mxCell>
        <mxCell id="XeW2exFy8SC8J2Q363h1-19" value="crm_prd_info" style="rounded=1;whiteSpace=wrap;html=1;fillColor=#ffe6cc;strokeColor=#d79b00;" vertex="1" parent="1">
          <mxGeometry x="-240" y="68" width="150" height="40" as="geometry" />
        </mxCell>
        <mxCell id="VXDTWk6sCS9KCiPVcs_8-17" style="edgeStyle=orthogonalEdgeStyle;rounded=0;orthogonalLoop=1;jettySize=auto;html=1;" edge="1" parent="1" source="XeW2exFy8SC8J2Q363h1-20" target="VXDTWk6sCS9KCiPVcs_8-10">
          <mxGeometry relative="1" as="geometry" />
        </mxCell>
        <mxCell id="XeW2exFy8SC8J2Q363h1-20" value="crm_cust_info" style="rounded=1;whiteSpace=wrap;html=1;fillColor=#ffe6cc;strokeColor=#d79b00;" vertex="1" parent="1">
          <mxGeometry x="-240" y="116" width="150" height="40" as="geometry" />
        </mxCell>
        <mxCell id="VXDTWk6sCS9KCiPVcs_8-3" value="" style="rounded=0;whiteSpace=wrap;html=1;fillColor=none;dashed=1;" vertex="1" parent="1">
          <mxGeometry x="10" y="-170" width="170" height="380" as="geometry" />
        </mxCell>
        <mxCell id="VXDTWk6sCS9KCiPVcs_8-4" value="&lt;font style=&quot;font-size: 16px;&quot;&gt;&lt;b&gt;Silver Layer&lt;/b&gt;&lt;/font&gt;" style="rounded=1;whiteSpace=wrap;html=1;fillColor=#f5f5f5;strokeColor=#666666;fontColor=#333333;" vertex="1" parent="1">
          <mxGeometry x="10" y="-230" width="170" height="50" as="geometry" />
        </mxCell>
        <mxCell id="VXDTWk6sCS9KCiPVcs_8-5" value="crm_sales_details" style="rounded=1;whiteSpace=wrap;html=1;fillColor=#f5f5f5;strokeColor=#666666;fontColor=#333333;" vertex="1" parent="1">
          <mxGeometry x="20" y="-136" width="150" height="40" as="geometry" />
        </mxCell>
        <mxCell id="VXDTWk6sCS9KCiPVcs_8-6" value="crm_prd_info" style="rounded=1;whiteSpace=wrap;html=1;fillColor=#f5f5f5;strokeColor=#666666;fontColor=#333333;" vertex="1" parent="1">
          <mxGeometry x="20" y="-88" width="150" height="40" as="geometry" />
        </mxCell>
        <mxCell id="VXDTWk6sCS9KCiPVcs_8-7" value="crm_cust_info" style="rounded=1;whiteSpace=wrap;html=1;fillColor=#f5f5f5;strokeColor=#666666;fontColor=#333333;" vertex="1" parent="1">
          <mxGeometry x="20" y="-40" width="150" height="40" as="geometry" />
        </mxCell>
        <mxCell id="VXDTWk6sCS9KCiPVcs_8-8" value="erp_cust_az12" style="rounded=1;whiteSpace=wrap;html=1;fillColor=#f5f5f5;strokeColor=#666666;fontColor=#333333;" vertex="1" parent="1">
          <mxGeometry x="20" y="20" width="150" height="40" as="geometry" />
        </mxCell>
        <mxCell id="VXDTWk6sCS9KCiPVcs_8-9" value="erp_loc_a101" style="rounded=1;whiteSpace=wrap;html=1;fillColor=#f5f5f5;strokeColor=#666666;fontColor=#333333;" vertex="1" parent="1">
          <mxGeometry x="20" y="68" width="150" height="40" as="geometry" />
        </mxCell>
        <mxCell id="VXDTWk6sCS9KCiPVcs_8-10" value="erp_px_cat_g1v2" style="rounded=1;whiteSpace=wrap;html=1;fillColor=#f5f5f5;strokeColor=#666666;fontColor=#333333;" vertex="1" parent="1">
          <mxGeometry x="20" y="116" width="150" height="40" as="geometry" />
        </mxCell>
        <mxCell id="eRy5k-FN1nzoQj88eMkK-1" value="" style="rounded=0;whiteSpace=wrap;html=1;fillColor=none;dashed=1;" vertex="1" parent="1">
          <mxGeometry x="240" y="-170" width="170" height="380" as="geometry" />
        </mxCell>
        <mxCell id="eRy5k-FN1nzoQj88eMkK-2" value="&lt;font style=&quot;font-size: 16px;&quot;&gt;&lt;b&gt;Gold Layer&lt;/b&gt;&lt;/font&gt;" style="rounded=1;whiteSpace=wrap;html=1;fillColor=#fff2cc;strokeColor=#d6b656;" vertex="1" parent="1">
          <mxGeometry x="240" y="-230" width="170" height="50" as="geometry" />
        </mxCell>
        <mxCell id="eRy5k-FN1nzoQj88eMkK-3" value="fact_sales" style="rounded=1;whiteSpace=wrap;html=1;fillColor=#fff2cc;strokeColor=#d6b656;" vertex="1" parent="1">
          <mxGeometry x="250" y="-136" width="150" height="40" as="geometry" />
        </mxCell>
        <mxCell id="eRy5k-FN1nzoQj88eMkK-4" value="dim_customers" style="rounded=1;whiteSpace=wrap;html=1;fillColor=#fff2cc;strokeColor=#d6b656;" vertex="1" parent="1">
          <mxGeometry x="250" y="90" width="150" height="40" as="geometry" />
        </mxCell>
        <mxCell id="eRy5k-FN1nzoQj88eMkK-5" value="dim_products" style="rounded=1;whiteSpace=wrap;html=1;fillColor=#fff2cc;strokeColor=#d6b656;" vertex="1" parent="1">
          <mxGeometry x="250" y="-20" width="150" height="40" as="geometry" />
        </mxCell>
        <mxCell id="eRy5k-FN1nzoQj88eMkK-19" value="" style="endArrow=classic;html=1;rounded=0;entryX=0;entryY=0.5;entryDx=0;entryDy=0;exitX=1;exitY=0.5;exitDx=0;exitDy=0;jumpStyle=gap;" edge="1" parent="1" source="VXDTWk6sCS9KCiPVcs_8-5" target="eRy5k-FN1nzoQj88eMkK-3">
          <mxGeometry width="50" height="50" relative="1" as="geometry">
            <mxPoint x="60" y="90" as="sourcePoint" />
            <mxPoint x="110" y="40" as="targetPoint" />
          </mxGeometry>
        </mxCell>
        <mxCell id="eRy5k-FN1nzoQj88eMkK-20" value="" style="endArrow=classic;html=1;rounded=0;entryX=0;entryY=0.5;entryDx=0;entryDy=0;exitX=1;exitY=0.5;exitDx=0;exitDy=0;jumpStyle=gap;" edge="1" parent="1" source="VXDTWk6sCS9KCiPVcs_8-6" target="eRy5k-FN1nzoQj88eMkK-5">
          <mxGeometry width="50" height="50" relative="1" as="geometry">
            <mxPoint x="60" y="90" as="sourcePoint" />
            <mxPoint x="110" y="40" as="targetPoint" />
          </mxGeometry>
        </mxCell>
        <mxCell id="eRy5k-FN1nzoQj88eMkK-21" value="" style="endArrow=classic;html=1;rounded=0;entryX=0;entryY=0.5;entryDx=0;entryDy=0;exitX=1;exitY=0.5;exitDx=0;exitDy=0;jumpStyle=gap;" edge="1" parent="1" source="VXDTWk6sCS9KCiPVcs_8-10" target="eRy5k-FN1nzoQj88eMkK-5">
          <mxGeometry width="50" height="50" relative="1" as="geometry">
            <mxPoint x="60" y="90" as="sourcePoint" />
            <mxPoint x="110" y="40" as="targetPoint" />
          </mxGeometry>
        </mxCell>
        <mxCell id="eRy5k-FN1nzoQj88eMkK-22" value="" style="endArrow=classic;html=1;rounded=0;exitX=1;exitY=0.5;exitDx=0;exitDy=0;entryX=0;entryY=0.25;entryDx=0;entryDy=0;jumpStyle=gap;" edge="1" parent="1" source="VXDTWk6sCS9KCiPVcs_8-7" target="eRy5k-FN1nzoQj88eMkK-4">
          <mxGeometry width="50" height="50" relative="1" as="geometry">
            <mxPoint x="60" y="90" as="sourcePoint" />
            <mxPoint x="110" y="40" as="targetPoint" />
          </mxGeometry>
        </mxCell>
        <mxCell id="eRy5k-FN1nzoQj88eMkK-23" value="" style="endArrow=classic;html=1;rounded=0;exitX=1;exitY=0.5;exitDx=0;exitDy=0;entryX=0;entryY=0.5;entryDx=0;entryDy=0;jumpStyle=gap;" edge="1" parent="1" source="VXDTWk6sCS9KCiPVcs_8-8" target="eRy5k-FN1nzoQj88eMkK-4">
          <mxGeometry width="50" height="50" relative="1" as="geometry">
            <mxPoint x="60" y="90" as="sourcePoint" />
            <mxPoint x="110" y="40" as="targetPoint" />
          </mxGeometry>
        </mxCell>
        <mxCell id="eRy5k-FN1nzoQj88eMkK-24" value="" style="endArrow=classic;html=1;rounded=0;entryX=0;entryY=0.75;entryDx=0;entryDy=0;exitX=1;exitY=0.5;exitDx=0;exitDy=0;jumpStyle=gap;" edge="1" parent="1" source="VXDTWk6sCS9KCiPVcs_8-9" target="eRy5k-FN1nzoQj88eMkK-4">
          <mxGeometry width="50" height="50" relative="1" as="geometry">
            <mxPoint x="60" y="90" as="sourcePoint" />
            <mxPoint x="110" y="40" as="targetPoint" />
          </mxGeometry>
        </mxCell>
      </root>
    </mxGraphModel>
  </diagram>
</mxfile>
